<?xml version="1.0" encoding="UTF-8"?><svg id="Calque_1" xmlns="http://www.w3.org/2000/svg" viewBox="0 0 920.42 294.01"><defs><style>.cls-1{fill:#fff;}.cls-2{fill:#36bde8;}.cls-3{fill:#007e9b;}</style></defs><g><path class="cls-1" d="m278.17,97.61v59.56c0,32.84,26.72,59.56,59.56,59.56h24.02c6.35,0,11.51-5.17,11.51-11.51v-107.61h-11.51c-6.35,0-11.51,5.17-11.51,11.51v84.58h-12.51c-20.14,0-36.53-16.39-36.53-36.53v-48.05c0-6.35-5.17-11.51-11.51-11.51h-11.51Z"/><path class="cls-1" d="m540.84,49.56v107.61c0,32.84,26.72,59.56,59.56,59.56h11.51v-11.51c0-6.35-5.17-11.51-11.51-11.51-20.14,0-36.53-16.39-36.53-36.53v-36.53h36.53c6.35,0,11.51-5.17,11.51-11.51v-11.51h-48.05v-36.53c0-6.35-5.17-11.51-11.51-11.51h-11.51Z"/><path class="cls-1" d="m59.56,97.61c-15.99,0-31.01,6.28-42.3,17.67C5.98,126.67-.15,141.76,0,157.76H0c.32,32.52,27.39,58.97,60.36,58.97h20.98v-11.51c0-6.35-5.17-11.51-11.51-11.51h-10.27c-9.91,0-19.19-3.91-26.13-11.02-6.94-7.1-10.63-16.48-10.39-26.39.46-19.66,17.13-35.65,37.14-35.65h9.65c6.35,0,11.51-5.17,11.51-11.51v-11.51h-21.78Z"/><path class="cls-1" d="m102.28,49.56v155.65c0,6.35,5.17,11.51,11.51,11.51h11.51V61.08c0-6.35-5.17-11.51-11.51-11.51h-11.51Z"/><path class="cls-1" d="m201.29,97.61c-32.84,0-59.56,26.72-59.56,59.56s26.72,59.56,59.56,59.56,59.56-26.72,59.56-59.56-26.72-59.56-59.56-59.56Zm0,96.09c-20.14,0-36.53-16.39-36.53-36.53s16.39-36.53,36.53-36.53,36.53,16.39,36.53,36.53-16.39,36.53-36.53,36.53Z"/><path class="cls-1" d="m500.4,97.61v107.61c0,6.35,5.17,11.51,11.51,11.51h11.51v-119.12h-23.03Z"/><path class="cls-1" d="m470.73,49.56c-6.35,0-11.51,5.17-11.51,11.51v24.02c0,6.89-5.66,12.5-12.61,12.51-32.37.05-59.05,26.43-59.46,58.79-.2,15.84,5.88,30.84,17.13,42.23,11.52,11.67,26.9,18.09,43.3,18.09h34.66V49.56h-11.52Zm-11.51,144.14h-11.91c-20.02,0-36.67-16.01-37.12-35.69-.23-9.97,3.51-19.38,10.53-26.49,6.93-7.02,16.15-10.88,25.98-10.88.22,0,.43,0,.65,0,2.46,0,5.01-.3,7.57-.89l4.29-.99v74.94Z"/><path class="cls-1" d="m642.25,284.1h44.55c14.81,0,28.15-9.39,33.28-23.12.44-1.17.66-2.4.66-3.65v-105.88c0-2.78-1.71-5.32-4.33-6.23-1.21-.42-2.49-.64-3.8-.64l-13.63-.13v51.38h-12.18c-20.18,0-36.53-16.36-36.53-36.53v-50.05c0-6.36-5.16-11.51-11.51-11.51h-11.51v61.56c0,32.89,26.67,59.56,59.56,59.56h12.51v29.7c0,6.91-5.6,12.51-12.51,12.51h-33.03c-6.36,0-11.51,5.16-11.51,11.51v11.51Z"/><path class="cls-1" d="m501.6,79.16h21v-10.5c0-5.79-4.71-10.5-10.5-10.5h-10.5v21Z"/></g><g><path class="cls-1" d="m187.37,265.89c0-2.09.37-4.16,1.1-6.2.74-2.04,1.8-3.9,3.21-5.59,1.4-1.68,3.13-3.03,5.17-4.04,2.04-1.01,4.37-1.52,6.98-1.52,3.1,0,5.75.71,7.94,2.13,2.19,1.42,3.82,3.24,4.9,5.46l-2.06,1.18c-.82-1.6-1.82-2.87-3.01-3.82-1.19-.95-2.47-1.62-3.85-2.03s-2.74-.61-4.12-.61c-2.19,0-4.14.44-5.86,1.32-1.71.88-3.16,2.06-4.34,3.53-1.18,1.47-2.07,3.1-2.67,4.9-.6,1.8-.91,3.61-.91,5.44,0,2.06.36,4.01,1.08,5.86.72,1.85,1.71,3.49,2.96,4.92,1.26,1.44,2.73,2.58,4.41,3.43,1.68.85,3.5,1.27,5.46,1.27,1.4,0,2.83-.24,4.29-.71,1.45-.47,2.82-1.21,4.09-2.21,1.27-1,2.3-2.29,3.09-3.9l2.16,1.03c-.75,1.73-1.88,3.2-3.38,4.41-1.5,1.21-3.17,2.12-5,2.74-1.83.62-3.64.93-5.44.93-2.35,0-4.52-.51-6.52-1.54-1.99-1.03-3.72-2.4-5.17-4.12-1.45-1.72-2.57-3.64-3.36-5.78s-1.18-4.3-1.18-6.49Z"/><path class="cls-1" d="m233.53,284.07c-1.8,0-3.45-.34-4.97-1.03-1.52-.68-2.83-1.64-3.94-2.86-1.11-1.22-1.98-2.63-2.6-4.22s-.93-3.27-.93-5.03.31-3.47.93-5.05,1.49-2.98,2.62-4.2c1.13-1.22,2.45-2.18,3.97-2.88,1.52-.7,3.16-1.05,4.92-1.05s3.4.35,4.9,1.05c1.5.7,2.83,1.66,3.97,2.88,1.14,1.22,2.02,2.62,2.65,4.2.62,1.58.93,3.26.93,5.05s-.31,3.43-.93,5.03c-.62,1.59-1.49,3-2.62,4.22-1.13,1.22-2.45,2.17-3.97,2.86-1.52.68-3.16,1.03-4.92,1.03Zm-10-13.04c0,1.98.45,3.8,1.35,5.44.9,1.64,2.1,2.95,3.6,3.93,1.5.97,3.17,1.46,5,1.46s3.5-.5,5.02-1.49c1.52-.99,2.73-2.33,3.63-4,.9-1.67,1.35-3.5,1.35-5.49s-.45-3.8-1.35-5.46c-.9-1.66-2.11-2.98-3.63-3.98s-3.18-1.49-4.97-1.49-3.5.5-5,1.51c-1.5,1.01-2.71,2.34-3.63,4-.92,1.66-1.37,3.51-1.37,5.56Z"/><path class="cls-1" d="m272.68,283.58h-2.45v-14.15c0-3.25-.47-5.64-1.4-7.15-.93-1.51-2.41-2.27-4.43-2.27-1.44,0-2.85.34-4.24,1.02-1.39.68-2.6,1.62-3.63,2.8-1.03,1.19-1.77,2.53-2.23,4.02v15.72h-2.45v-25.43h2.3v6.1c.69-1.3,1.6-2.43,2.74-3.39,1.14-.96,2.42-1.72,3.82-2.27,1.4-.55,2.86-.83,4.36-.83,1.4,0,2.59.25,3.55.76.96.5,1.75,1.23,2.35,2.17.6.94,1.04,2.12,1.3,3.51.26,1.4.39,3,.39,4.78v14.6Z"/><path class="cls-1" d="m300.9,283.58h-2.45v-14.15c0-3.25-.47-5.64-1.4-7.15-.93-1.51-2.41-2.27-4.43-2.27-1.44,0-2.85.34-4.24,1.02-1.39.68-2.6,1.62-3.63,2.8-1.03,1.19-1.77,2.53-2.23,4.02v15.72h-2.45v-25.43h2.3v6.1c.69-1.3,1.6-2.43,2.74-3.39,1.14-.96,2.42-1.72,3.82-2.27,1.4-.55,2.86-.83,4.36-.83,1.4,0,2.59.25,3.55.76.96.5,1.75,1.23,2.35,2.17.6.94,1.04,2.12,1.3,3.51.26,1.4.39,3,.39,4.78v14.6Z"/><path class="cls-1" d="m319.13,284.07c-1.8,0-3.46-.35-5-1.05-1.54-.7-2.87-1.66-3.99-2.88-1.13-1.22-2.01-2.64-2.65-4.25-.64-1.61-.96-3.31-.96-5.1,0-2.41.54-4.59,1.62-6.54,1.08-1.95,2.56-3.52,4.46-4.71,1.89-1.19,4.02-1.78,6.37-1.78s4.56.6,6.42,1.81c1.86,1.21,3.34,2.79,4.43,4.76,1.09,1.97,1.64,4.13,1.64,6.47v.59c0,.19-.02.36-.05.49h-22.34c.13,1.92.67,3.66,1.62,5.22.95,1.56,2.16,2.79,3.65,3.68,1.49.89,3.11,1.34,4.88,1.34s3.43-.46,5-1.37c1.57-.91,2.66-2.09,3.28-3.53l2.16.59c-.49,1.21-1.27,2.29-2.33,3.23-1.06.95-2.3,1.69-3.72,2.23-1.42.54-2.92.81-4.48.81Zm-10.14-14.11h20.14c-.13-1.98-.65-3.74-1.57-5.27-.92-1.53-2.12-2.73-3.6-3.61-1.49-.88-3.13-1.32-4.92-1.32s-3.43.44-4.9,1.32c-1.47.88-2.66,2.08-3.58,3.61-.92,1.53-1.44,3.28-1.57,5.27Z"/><path class="cls-1" d="m347.69,284.07c-1.76,0-3.41-.35-4.95-1.05-1.54-.7-2.88-1.66-4.02-2.88-1.14-1.22-2.03-2.63-2.67-4.22-.64-1.59-.96-3.3-.96-5.13,0-2.44.54-4.64,1.62-6.59,1.08-1.95,2.56-3.51,4.46-4.69,1.89-1.17,4.05-1.76,6.47-1.76s4.36.53,6.12,1.59,3.09,2.51,3.97,4.34l-2.4.78c-.75-1.4-1.82-2.51-3.21-3.31-1.39-.8-2.92-1.2-4.58-1.2-1.86,0-3.54.47-5.05,1.42-1.5.94-2.7,2.24-3.6,3.88-.9,1.64-1.35,3.49-1.35,5.54s.46,3.87,1.37,5.56c.91,1.69,2.13,3.03,3.65,4.03,1.52.99,3.19,1.49,5.02,1.49,1.18,0,2.33-.22,3.45-.66,1.13-.44,2.11-1.02,2.94-1.74.83-.72,1.38-1.49,1.64-2.3l2.4.69c-.43,1.21-1.16,2.28-2.21,3.21-1.05.93-2.26,1.67-3.65,2.21-1.39.54-2.88.81-4.48.81Z"/><path class="cls-1" d="m374.94,282.55c-.16.07-.49.23-.98.49-.49.26-1.11.5-1.86.71-.75.21-1.58.32-2.5.32s-1.71-.17-2.47-.52c-.77-.34-1.38-.86-1.84-1.55-.46-.69-.69-1.53-.69-2.52v-19.33h-3.58v-2.01h3.58v-8.72h2.45v8.72h5.93v2.01h-5.93v18.75c.07.95.41,1.67,1.03,2.15.62.48,1.34.71,2.16.71,1.01,0,1.89-.17,2.65-.51.75-.34,1.19-.56,1.32-.66l.73,1.96Z"/><path class="cls-1" d="m422.81,258.15h2.45l-11.03,25.43h-2.16l-5.63-13.25-5.63,13.25h-2.16l-11.02-25.43h2.4l9.75,22.74,5.24-12.42-4.26-10.27h2.21l3.48,8.36,3.43-8.36h2.25l-4.26,10.27,5.24,12.42,9.7-22.74Z"/><path class="cls-1" d="m451.04,248.79l-22.88,34.79h-2.79l22.83-34.79h2.84Z"/><path class="cls-1" d="m467.4,284.07c-2.19,0-4.14-.58-5.86-1.73s-3.1-2.56-4.14-4.22v15.9h-2.45v-35.87h2.25v5.12c1.04-1.63,2.43-2.95,4.16-3.98,1.73-1.02,3.56-1.54,5.49-1.54,1.8,0,3.43.37,4.9,1.1,1.47.73,2.75,1.73,3.85,2.98,1.09,1.25,1.94,2.66,2.55,4.22.6,1.56.91,3.19.91,4.88,0,2.34-.49,4.52-1.47,6.52-.98,2-2.34,3.6-4.09,4.81-1.75,1.21-3.78,1.81-6.1,1.81Zm-.59-2.21c1.5,0,2.85-.31,4.04-.93,1.19-.62,2.21-1.45,3.06-2.49.85-1.04,1.5-2.21,1.96-3.51s.69-2.63.69-4c0-1.46-.26-2.85-.78-4.17-.52-1.32-1.25-2.48-2.18-3.49-.93-1.01-2.01-1.81-3.23-2.41-1.23-.6-2.56-.9-3.99-.9-.88,0-1.82.18-2.82.54-1,.36-1.94.86-2.84,1.51-.9.65-1.64,1.39-2.23,2.22-.59.83-.95,1.68-1.08,2.56v8.35c.59,1.24,1.35,2.37,2.28,3.39s2.02,1.84,3.26,2.44c1.24.6,2.53.9,3.87.9Z"/><path class="cls-1" d="m495.77,284.07c-1.8,0-3.46-.35-5-1.05-1.54-.7-2.87-1.66-3.99-2.88-1.13-1.22-2.01-2.64-2.65-4.25-.64-1.61-.96-3.31-.96-5.1,0-2.41.54-4.59,1.62-6.54,1.08-1.95,2.56-3.52,4.46-4.71,1.89-1.19,4.02-1.78,6.37-1.78s4.56.6,6.42,1.81c1.86,1.21,3.34,2.79,4.43,4.76,1.09,1.97,1.64,4.13,1.64,6.47v.59c0,.19-.02.36-.05.49h-22.34c.13,1.92.67,3.66,1.62,5.22.95,1.56,2.16,2.79,3.65,3.68,1.49.89,3.11,1.34,4.88,1.34s3.43-.46,5-1.37c1.57-.91,2.66-2.09,3.28-3.53l2.16.59c-.49,1.21-1.27,2.29-2.33,3.23s-2.3,1.69-3.72,2.23-2.92.81-4.48.81Zm-10.14-14.11h20.14c-.13-1.98-.65-3.74-1.57-5.27-.92-1.53-2.12-2.73-3.6-3.61-1.49-.88-3.13-1.32-4.92-1.32s-3.43.44-4.9,1.32c-1.47.88-2.66,2.08-3.58,3.61-.92,1.53-1.44,3.28-1.57,5.27Z"/><path class="cls-1" d="m524.19,284.07c-1.8,0-3.45-.34-4.97-1.03-1.52-.68-2.83-1.64-3.94-2.86-1.11-1.22-1.98-2.63-2.6-4.22-.62-1.59-.93-3.27-.93-5.03s.31-3.47.93-5.05c.62-1.58,1.49-2.98,2.62-4.2,1.13-1.22,2.45-2.18,3.97-2.88,1.52-.7,3.16-1.05,4.92-1.05s3.4.35,4.9,1.05c1.5.7,2.83,1.66,3.97,2.88,1.14,1.22,2.03,2.62,2.65,4.2s.93,3.26.93,5.05-.31,3.43-.93,5.03-1.49,3-2.62,4.22c-1.13,1.22-2.45,2.17-3.97,2.86-1.52.68-3.16,1.03-4.92,1.03Zm-10-13.04c0,1.98.45,3.8,1.35,5.44.9,1.64,2.1,2.95,3.6,3.93,1.5.97,3.17,1.46,5,1.46s3.5-.5,5.02-1.49c1.52-.99,2.73-2.33,3.63-4,.9-1.67,1.35-3.5,1.35-5.49s-.45-3.8-1.35-5.46c-.9-1.66-2.11-2.98-3.63-3.98s-3.18-1.49-4.97-1.49-3.5.5-5,1.51c-1.5,1.01-2.71,2.34-3.63,4-.92,1.66-1.37,3.51-1.37,5.56Z"/><path class="cls-1" d="m554.96,284.07c-2.19,0-4.14-.58-5.86-1.73-1.71-1.16-3.09-2.56-4.14-4.22v15.9h-2.45v-35.87h2.25v5.12c1.04-1.63,2.43-2.95,4.17-3.98,1.73-1.02,3.56-1.54,5.49-1.54,1.8,0,3.43.37,4.9,1.1,1.47.73,2.75,1.73,3.85,2.98,1.09,1.25,1.94,2.66,2.55,4.22.6,1.56.91,3.19.91,4.88,0,2.34-.49,4.52-1.47,6.52-.98,2-2.34,3.6-4.09,4.81-1.75,1.21-3.78,1.81-6.1,1.81Zm-.59-2.21c1.5,0,2.85-.31,4.04-.93,1.19-.62,2.21-1.45,3.06-2.49.85-1.04,1.5-2.21,1.96-3.51.46-1.3.69-2.63.69-4,0-1.46-.26-2.85-.78-4.17-.52-1.32-1.25-2.48-2.18-3.49-.93-1.01-2.01-1.81-3.23-2.41-1.22-.6-2.56-.9-3.99-.9-.88,0-1.82.18-2.82.54-1,.36-1.94.86-2.84,1.51-.9.65-1.64,1.39-2.23,2.22-.59.83-.95,1.68-1.08,2.56v8.35c.59,1.24,1.35,2.37,2.28,3.39.93,1.02,2.02,1.84,3.26,2.44,1.24.6,2.53.9,3.87.9Z"/><path class="cls-1" d="m572.7,247.81h2.5v30.9c0,1.18.25,2,.74,2.44.49.44,1.13.67,1.91.67.52,0,1.06-.05,1.62-.15.55-.1,1.04-.23,1.47-.39l.49,2.01c-.56.2-1.24.38-2.06.54-.82.16-1.52.25-2.11.25-1.37,0-2.47-.42-3.31-1.26-.83-.84-1.25-1.96-1.25-3.38v-31.63Z"/><path class="cls-1" d="m596.03,284.07c-1.8,0-3.46-.35-5-1.05-1.54-.7-2.87-1.66-3.99-2.88-1.13-1.22-2.01-2.64-2.65-4.25-.64-1.61-.96-3.31-.96-5.1,0-2.41.54-4.59,1.62-6.54,1.08-1.95,2.56-3.52,4.46-4.71,1.89-1.19,4.02-1.78,6.37-1.78s4.56.6,6.42,1.81c1.86,1.21,3.34,2.79,4.43,4.76,1.09,1.97,1.64,4.13,1.64,6.47v.59c0,.19-.02.36-.05.49h-22.34c.13,1.92.67,3.66,1.62,5.22.95,1.56,2.16,2.79,3.65,3.68s3.11,1.34,4.88,1.34,3.43-.46,5-1.37c1.57-.91,2.66-2.09,3.28-3.53l2.16.59c-.49,1.21-1.27,2.29-2.33,3.23s-2.3,1.69-3.72,2.23-2.92.81-4.48.81Zm-10.14-14.11h20.14c-.13-1.98-.65-3.74-1.57-5.27-.92-1.53-2.12-2.73-3.6-3.61-1.49-.88-3.13-1.32-4.92-1.32s-3.43.44-4.9,1.32c-1.47.88-2.66,2.08-3.58,3.61-.92,1.53-1.44,3.28-1.57,5.27Z"/></g><path class="cls-3" d="m816.65,93.18l-4.36-3.79-20.21-18.93c-.22-.16-.43-.33-.62-.52-15.46,1.32-28.53,10.64-39.17,18.29l-.71.51c-6.82,5.13-14.92,7.9-23.46,8.03-20.88.3-38.77-15.84-40.49-36.65-1.95-23.6,16.7-43.43,39.9-43.43,6.95,0,13.42,1.8,19.36,5.17.44.25.89.51,1.33.78-.19-.11-.38-.26-.56-.42h0s-29.07-21.31-29.07-21.31l-1.29.21-.24.04c-27.41,5.16-47.93,30.11-45.97,59.41,1.92,28.89,25.87,51.9,54.82,52.7,12.95.36,25.29-3.56,35.55-11.27l.52-.37c10.04-7.22,21.41-15.4,33.16-15.4,2.72,0,5.64.41,8.75,1.28,2.06.61,4.36,1.58,4.94,1.83h0s0,0,0,0c.09.04.14.06.14.06l5.49,2.68.36.18,2.44,1.37-.58-.47Z"/><path class="cls-2" d="m920.33,53.49c-1.68-29.85-26.82-53.44-56.71-53.32-12.27.05-23.92,3.96-33.69,11.29l-.52.37c-10.04,7.22-21.41,15.4-33.16,15.4-7.87,0-17.59-4.23-28.87-12.54l-6.36-4.17-3.58-2.16c-3.44-1.87-7.38-3.93-9.23-4.7-.85-.44-2.12-.83-3.04-1.18-4.38-1.42-8.67-2.14-12.75-2.4-.65-.03-1.29-.05-1.92-.07-.41,0-.81-.01-1.22-.01-.04,0-.09,0-.13,0-4.38,0-8.35.48-11.69,1.1.03.02.17.11.4.27l25.58,18.23,4.9,3.32c9.15,6.16,18.01,16.85,27.03,28.23,6.31,7.97,12.27,15.49,18.58,21.58,6.04,5.84,10.34,9.97,14.23,13.47,0,0,12.53,10.44,15.03,12.2,1.71,1.2,3.91,2.94,6.4,4.64.01,0,.03.02.03.02,0,0,7.85,4.99,11.96,6.54,6.14,2.48,12.8,3.78,19.78,3.78.82,0,1.64-.02,2.46-.05,32.28,0,58.33-27.17,56.49-59.83Zm-16.6,6.77c-1.78,20.79-19.71,36.86-40.57,36.51-4.57-.08-9.01-.92-13.21-2.47h0c-.08-.02-.16-.06-.24-.09-1.68-.63-3.31-1.38-4.9-2.24-13.47-7.03-29.07-21.47-29.07-21.47,0,0,0,0,0,0-2.86-2.56-6.12-5.63-10.29-9.67-4.92-4.76-9.93-10.92-15.19-17.54,0,0,0,0,0,0,2.04.31,4.04.46,5.98.46,17.08,0,31.35-10.26,42.82-18.51l.71-.52c6.98-5.25,15.3-8.03,24.06-8.03,23.24,0,41.92,19.9,39.89,43.56Z"/></svg>