<?xml version="1.0" encoding="UTF-8"?><svg id="Calque_1" xmlns="http://www.w3.org/2000/svg" viewBox="0 0 663.69 301.61"><defs><style>.cls-1{fill:#37bee8;}.cls-2{fill:#047f9c;}</style></defs><path class="cls-2" d="m387.62,247.9l-11.6-10.07-53.76-50.37c-.58-.43-1.14-.89-1.64-1.39-41.14,3.5-75.9,28.31-104.2,48.67l-1.89,1.37c-18.14,13.66-39.69,21.03-62.41,21.35-55.54.8-103.15-42.14-107.72-97.49-5.19-62.78,44.43-115.53,106.14-115.53,18.49,0,35.71,4.78,51.51,13.74,1.18.67,2.36,1.37,3.53,2.08-.51-.3-1-.69-1.49-1.11v.03S126.72,2.46,126.72,2.46l-3.44.57-.64.12C49.72,16.86-4.85,83.25.34,161.2c5.12,76.87,68.82,138.07,145.83,140.21,34.45.96,67.29-9.48,94.57-29.97l1.38-.99c26.7-19.2,56.95-40.96,88.21-40.96,7.24,0,15,1.09,23.28,3.39,5.49,1.63,11.6,4.21,13.13,4.87h0s0,0,0,0c.23.1.36.16.36.16l14.59,7.12.97.47,6.49,3.65-1.53-1.25Z"/><path class="cls-1" d="m663.44,142.3C658.97,62.89,592.1.13,512.57.44c-32.64.13-63.64,10.53-89.62,30.03l-1.37.99c-26.7,19.2-56.96,40.96-88.21,40.96-20.94,0-46.78-11.25-76.81-33.36l-16.91-11.09-9.52-5.75c-9.16-4.98-19.64-10.46-24.56-12.5-2.26-1.17-5.64-2.21-8.07-3.13-11.65-3.78-23.08-5.7-33.92-6.38-1.74-.09-3.44-.15-5.11-.18-1.09-.02-2.16-.03-3.23-.03-.12,0-.23,0-.35,0-11.66.02-22.21,1.28-31.09,2.94.08.05.45.3,1.06.71l68.05,48.51,13.04,8.82c24.33,16.38,47.92,44.82,71.9,75.09,16.79,21.19,32.65,41.21,49.42,57.42,16.07,15.54,27.5,26.53,37.85,35.83,0,0,33.34,27.78,39.99,32.46,4.55,3.2,10.4,7.83,17.03,12.33.03.02.08.06.08.06,0,0,20.88,13.27,31.81,17.41,16.32,6.6,34.05,10.05,52.62,10.05,2.17,0,4.36-.05,6.55-.14,85.86,0,155.17-72.27,150.27-159.17Zm-44.16,18.02c-4.75,55.3-52.44,98.06-107.94,97.14-12.16-.2-23.97-2.44-35.13-6.57v.02c-.2-.08-.41-.17-.62-.25-4.46-1.68-8.81-3.67-13.04-5.97-35.83-18.71-77.34-57.12-77.34-57.12,0,0,0,0,0,0-7.6-6.81-16.28-14.98-27.39-25.72-13.09-12.65-26.42-29.06-40.4-46.66,0,0,0,0,0,0,5.44.82,10.76,1.23,15.92,1.23,45.43,0,83.39-27.3,113.92-49.25l1.89-1.37c18.56-13.98,40.69-21.36,64-21.36,61.82,0,111.52,52.95,106.11,115.88Z"/></svg>