<?xml version="1.0" encoding="UTF-8"?>
<svg id="Test_harmonisation_construction" data-name="Test harmonisation construction" xmlns="http://www.w3.org/2000/svg" viewBox="0 0 174.62 54.9">
  <defs>
    <style>
      .cls-1 {
        fill: #fff;
      }
    </style>
  </defs>
  <g>
    <path class="cls-1" d="M11.91,36.85c-2.72,0-4.84-2.08-4.84-5.08s2.12-5.01,4.88-5.01c2.15,0,3.8,1.24,4.51,3.16l3.97-1.28c-1.65-4.14-5.14-5.82-8.61-5.82-5.21,0-9.08,3.8-9.08,8.94s3.83,9.01,9.04,9.01c3.6,0,7.26-1.92,8.71-6.02l-3.9-1.24c-.77,2.08-2.42,3.33-4.67,3.33Z"/>
    <rect class="cls-1" x="22.96" y="16.61" width="4.37" height="23.67"/>
    <path class="cls-1" d="M63.7,32.79c0,2.62-1.38,4.07-3.83,4.07s-3.9-1.38-3.9-4.1v-9.41h-4.34v9.82c0,4.88,3.29,7.63,8.17,7.63s8.24-2.72,8.24-7.63v-9.82h-4.34v9.45Z"/>
    <path class="cls-1" d="M95.69,20.75c1.61,0,2.99-1.34,2.99-2.92s-1.38-2.96-2.99-2.96-2.96,1.24-2.96,2.96,1.38,2.92,2.96,2.92Z"/>
    <rect class="cls-1" x="93.54" y="23.34" width="4.37" height="16.94"/>
    <path class="cls-1" d="M113.04,36.11c-.67.37-1.51.57-2.35.57-1.85,0-3.13-.87-3.13-3.19v-6.56h5.48v-3.6h-5.48v-4.14l-7.97,7.73h3.63v7.09c0,4.2,2.49,6.69,6.29,6.69,1.18,0,2.35-.24,3.53-.77v-3.83Z"/>
    <path class="cls-1" d="M127.85,28.41v4.38c0,2.62-1.38,4.07-3.83,4.07s-3.9-1.38-3.9-4.1v-9.41h-4.34v9.29c0,4.42,3.53,8.07,7.95,8.16,1.5.03,2.86-.22,4.05-.7v4.82c0,.89-.72,1.61-1.61,1.61h-4.18l-3.74,4h9.69c2.35,0,4.26-1.91,4.26-4.26v-17.05s-.03,0-.05,0c-1.49-.04-2.93-.32-4.29-.79Z"/>
    <path class="cls-1" d="M39.79,22.83c-5.08,0-9.28,3.77-9.28,8.98s4.07,8.98,9.25,8.98,9.35-3.83,9.35-9.01-4.2-8.94-9.31-8.94ZM39.75,36.85c-2.76,0-4.94-2.15-4.94-5.08s2.19-5.01,4.98-5.01,5.01,2.08,5.01,5.01-2.22,5.08-5.04,5.08Z"/>
    <path class="cls-1" d="M84.87,16.61v9.14c-1.38-2.08-3.63-2.92-5.58-2.92-5.01,0-8.64,4-8.64,9.08s3.53,8.88,8.51,8.88c2.05,0,4.3-.91,5.72-2.89v2.39h4.17v-23.67h-4.17ZM79.93,36.85c-2.82,0-5.01-2.08-5.01-5.04s2.22-5.04,5.04-5.04c2.99,0,5.04,2.42,5.04,5.04s-2.08,5.04-5.08,5.04Z"/>
  </g>
  <path class="cls-1" d="M137.28,20.39l-.15.11c-1.28.96-2.8,1.48-4.41,1.51-.04,0-.07,0-.11,0-3.89,0-7.18-3-7.5-6.88-.18-2.13.52-4.16,1.96-5.73.32-.35.67-.67,1.06-.95s.79-.52,1.21-.73.87-.37,1.32-.49c.14-.04.61-.15,1.06-.23-.02-.04-3.18-3.54-3.25-3.63-.02-.03-.12.04-.13.03-4.79,1.83-7.96,6.61-7.61,11.89.4,6.04,5.46,10.91,11.52,11.08,2.71.08,5.31-.74,7.46-2.36l.1-.07c1.25-.9,3.69-2.46,5.24-3.13-.1-.11-3.12-3.14-3.17-3.22-2.01.92-3.53,2.02-4.63,2.8Z"/>
  <path class="cls-1" d="M171.87,13.8c-.35-6.29-5.56-11.21-11.87-11.21h-.05c-2.58,0-5.03.83-7.07,2.37l-.1.07c-1.95,1.4-4.16,2.99-6.36,2.99-1.47,0-3.31-.81-5.51-2.43l-1.29-.85-.74-.45c-.76-.41-1.52-.82-2.33-1.13s-1.66-.51-2.57-.58-1.71-.08-2.63.03c.03.08.14.17.2.24l.36.39.99,1.06c.55.59,5.36,5.27,6.28,6.27.73.79,1.47,1.58,2.2,2.39,2.39,2.65,4.73,5.31,7.31,7.77,2.38,2.27,4.99,4.56,8.29,5.32,4.19.96,8.69-.27,11.66-3.41,2.27-2.4,3.42-5.54,3.23-8.84ZM167.49,15.15c-.33,3.87-3.61,6.86-7.5,6.86-.04,0-.08,0-.12,0-5.48,0-12.96-9.75-12.87-9.75,3.47-.11,6.03-2.01,8.33-3.67l.15-.11c1.31-.99,2.87-1.51,4.52-1.51,2.1,0,4.12.89,5.54,2.44,1.44,1.57,2.13,3.61,1.95,5.74Z"/>
</svg>